<svg width="263" height="148" viewBox="0 0 263 148" fill="none" xmlns="http://www.w3.org/2000/svg">
<path fill-rule="evenodd" clip-rule="evenodd" d="M56.0618 1.23687C52.3133 2.35545 49.144 4.60848 46.5167 7.65297C45.1716 9.21168 44.0548 10.8791 43.1523 12.5472L43.0588 12.7214C42.8136 13.1826 42.5995 13.6169 42.416 14.0172L42.3687 14.1212L42.3095 14.099C37.3568 12.2558 32.9619 12.1496 29.1183 13.5413C25.8312 14.7315 23.0963 16.9553 20.866 19.9037C19.6702 21.4846 18.6948 23.1747 17.9214 24.865L17.8414 25.0415C17.6316 25.5086 17.4501 25.9483 17.2957 26.3537L17.2167 26.5639L17.2131 26.5635C11.6121 25.9397 7.078 26.9284 3.57699 29.2457C-2.45 33.2122 0.38872 42.599 7.59829 42.599H127.761C128.199 42.599 128.54 42.2168 128.489 41.7812L128.475 41.6733C128.456 41.5358 128.424 41.3404 128.377 41.0935C128.276 40.5672 128.137 39.9829 127.952 39.3548C127.426 37.5626 126.644 35.7703 125.553 34.0934C123.916 31.5752 121.727 29.5467 118.915 28.1959L118.762 28.1234C115.591 26.6393 111.758 26.0714 107.218 26.5574L107.145 26.5654L107.122 26.5033C106.937 26.0072 106.71 25.456 106.439 24.8634C105.664 23.1722 104.687 21.4813 103.491 19.8996C101.258 16.9478 98.5222 14.7218 95.2355 13.5315L95.0947 13.4812C91.3333 12.1595 87.0498 12.268 82.2385 14.029L81.9911 14.1209L82.011 14.164C81.7896 13.6742 81.5207 13.1302 81.2026 12.5453C80.2954 10.877 79.1739 9.20932 77.8246 7.65041C76.4983 6.11811 75.0191 4.77302 73.38 3.6685C73.3552 3.65177 73.3293 3.63657 73.3026 3.623L71.8119 2.86488L71.7725 2.84631C65.9136 0.292345 60.6782 -0.140688 56.0618 1.23687ZM71.1682 4.18339L72.5963 4.90972L72.561 4.88561C74.0871 5.91398 75.471 7.17242 76.7162 8.61109C77.9916 10.0846 79.0551 11.6659 79.9147 13.2467C80.215 13.7989 80.468 14.3108 80.6749 14.7686L80.7743 14.9927C80.8047 15.0627 80.8323 15.1277 80.8572 15.1878L80.9126 15.3245C81.0593 15.7076 81.4914 15.8959 81.8716 15.7423C86.7931 13.7545 91.0569 13.5786 94.7365 14.9112C97.7309 15.9957 100.248 18.0438 102.322 20.7852C103.449 22.2751 104.373 23.8751 105.106 25.4749C105.362 26.0341 105.576 26.5525 105.748 27.0163L105.831 27.2434C105.848 27.2906 105.864 27.3357 105.879 27.3785L105.946 27.5799C106.051 27.9204 106.386 28.136 106.739 28.0909C111.375 27.4992 115.193 28.0348 118.281 29.5187C120.837 30.7468 122.827 32.5909 124.324 34.8938C125.331 36.442 126.057 38.1052 126.545 39.7685L126.595 39.9416C126.693 40.2852 126.775 40.613 126.844 40.9217L126.889 41.1317H7.59829C1.84115 41.1317 -0.42562 33.6361 4.38429 30.4706C7.70516 28.2726 12.0823 27.3706 17.6213 28.0907C17.9606 28.1348 18.2831 27.9383 18.402 27.6214L18.4618 27.4406L18.506 27.3123C18.5297 27.2448 18.5556 27.1723 18.584 27.0951L18.6131 27.0162C18.7856 26.5528 18.9988 26.0348 19.2545 25.4759C19.9861 23.8772 20.9088 22.2783 22.0351 20.7894C24.1062 18.0514 26.6224 16.0055 29.6171 14.9211C33.2974 13.5886 37.5642 13.7615 42.4915 15.7427C42.8722 15.8958 43.3043 15.7065 43.4501 15.3228L43.505 15.1861L43.5581 15.0595C43.5959 14.9706 43.6385 14.873 43.6861 14.7672C43.8916 14.3095 44.1431 13.7979 44.4417 13.2458C45.2966 11.6657 46.3554 10.0849 47.6265 8.61201C50.0828 5.76562 53.0245 3.67442 56.4808 2.64302C60.7055 1.38234 65.5246 1.76264 70.998 4.10984L71.1682 4.18339Z" fill="#364356"/>
<path fill-rule="evenodd" clip-rule="evenodd" d="M129.592 109.487C129.915 109.242 130.374 109.306 130.618 109.63C130.863 109.953 130.799 110.413 130.476 110.657C129.278 111.563 128.177 112.614 127.17 113.783C125.908 115.248 124.857 116.82 124.007 118.392C123.74 118.886 123.51 119.348 123.318 119.767L123.255 119.905C123.196 120.037 123.145 120.155 123.101 120.26L123.04 120.408C123.031 120.431 123.025 120.447 123.021 120.458C122.875 120.841 122.443 121.03 122.062 120.877C117.135 118.896 112.868 118.723 109.188 120.056C106.193 121.14 103.677 123.186 101.606 125.924C100.479 127.413 99.5567 129.012 98.8252 130.611C98.595 131.114 98.3993 131.583 98.2367 132.01L98.1838 132.151C98.1538 132.231 98.1263 132.307 98.1011 132.378L97.9963 132.684L97.9869 132.714C97.8817 133.055 97.546 133.271 97.1919 133.225C91.653 132.505 87.2758 133.407 83.9562 135.604C79.2103 138.742 81.3748 146.117 86.9975 146.264L87.1689 146.266H206.434L206.423 146.211C206.347 145.858 206.254 145.479 206.14 145.079L206.09 144.906C205.6 143.244 204.873 141.582 203.866 140.036C200.812 135.347 195.892 132.676 188.574 133.035C188.17 133.055 187.826 132.743 187.806 132.338C187.787 131.933 188.098 131.589 188.503 131.569C196.355 131.184 201.763 134.12 205.094 139.234C206.185 140.91 206.968 142.7 207.496 144.491C207.681 145.118 207.821 145.702 207.923 146.228L207.961 146.436C208 146.651 208.023 146.813 208.035 146.915C208.084 147.336 207.768 147.708 207.351 147.732L207.307 147.734H87.1689C79.9662 147.734 77.1402 138.352 83.1476 134.38C86.607 132.091 91.0749 131.098 96.5842 131.677L96.7873 131.699L96.8097 131.639C96.9758 131.192 97.176 130.702 97.412 130.176L97.492 130C98.2655 128.309 99.2409 126.619 100.437 125.038C102.667 122.09 105.402 119.866 108.689 118.676C112.484 117.302 116.816 117.388 121.692 119.165L121.939 119.256L121.985 119.156C122.168 118.758 122.38 118.326 122.624 117.867L122.717 117.693C123.614 116.034 124.724 114.375 126.06 112.825C127.132 111.58 128.308 110.457 129.592 109.487Z" fill="#364356"/>
<path fill-rule="evenodd" clip-rule="evenodd" d="M190.179 43.9364C194.744 42.574 199.916 42.9826 205.697 45.4624L205.89 45.5458L205.929 45.5644L207.42 46.3225C207.446 46.3361 207.472 46.3513 207.497 46.368C209.136 47.4725 210.615 48.8176 211.942 50.3499C213.291 51.9088 214.412 53.5765 215.32 55.2448C215.606 55.7712 215.852 56.2645 216.06 56.715L216.108 56.8205L216.168 56.798C221.055 54.9706 225.402 54.8419 229.212 56.1807L229.353 56.231C232.639 57.4213 235.375 59.6473 237.608 62.5991C238.804 64.1808 239.781 65.8717 240.556 67.5629C240.8 68.0963 241.008 68.5961 241.183 69.0524L241.262 69.2649L241.335 69.2569C245.875 68.7709 249.708 69.3388 252.879 70.8229L253.032 70.8955C255.844 72.2462 258.033 74.2747 259.67 76.7929C260.761 78.4698 261.543 80.2621 262.069 82.0543C262.254 82.6824 262.393 83.2667 262.494 83.7931L262.533 84.0011C262.571 84.2165 262.594 84.3786 262.606 84.4807C262.655 84.9018 262.338 85.273 261.921 85.2973L261.878 85.2985H190.127C189.722 85.2985 189.394 84.97 189.394 84.5648C189.394 84.1741 189.699 83.8547 190.084 83.8324L190.127 83.8312L261.006 83.8309L260.994 83.774C260.919 83.4213 260.826 83.042 260.712 82.6412L260.662 82.4681C260.174 80.8048 259.448 79.1415 258.441 77.5933C256.944 75.2904 254.954 73.4464 252.398 72.2182C249.31 70.7343 245.492 70.1987 240.856 70.7904C240.517 70.8337 240.196 70.6375 240.077 70.3213L240.017 70.1406C239.976 70.0189 239.926 69.8768 239.866 69.7158C239.693 69.2521 239.479 68.7337 239.223 68.1744C238.49 66.5747 237.566 64.9747 236.439 63.4847C234.365 60.7433 231.848 58.6952 228.854 57.6108C225.174 56.2781 220.91 56.454 215.989 58.4418C215.622 58.5899 215.207 58.4201 215.046 58.0643L214.974 57.8873L214.921 57.7606C214.883 57.6717 214.84 57.574 214.792 57.4681C214.585 57.0103 214.332 56.4984 214.032 55.9462C213.172 54.3655 212.109 52.7841 210.833 51.3106C209.642 49.9345 208.324 48.7233 206.876 47.7206L206.713 47.6092L205.285 46.8829L205.115 46.8094C199.704 44.4891 194.933 44.0909 190.744 45.2997L190.598 45.3425C187.141 46.3739 184.2 48.4651 181.744 51.3115C180.472 52.7845 179.414 54.3652 178.559 55.9453C178.26 56.4974 178.009 57.0091 177.803 57.4667L177.735 57.6192C177.714 57.668 177.694 57.7146 177.675 57.759L177.572 58.0098C177.57 58.0147 177.568 58.0188 177.567 58.0223C177.421 58.406 176.989 58.5953 176.609 58.4423C171.681 56.461 167.414 56.2881 163.734 57.6206C160.739 58.705 158.223 60.751 156.152 63.4889C155.026 64.9778 154.103 66.5768 153.372 68.1754C153.141 68.6784 152.946 69.1483 152.783 69.5751L152.73 69.7158C152.7 69.7962 152.673 69.8719 152.647 69.9427L152.543 70.2492L152.533 70.2789C152.428 70.6203 152.092 70.8363 151.738 70.7902C146.199 70.0701 141.822 70.9721 138.503 73.1691C138.165 73.3926 137.71 73.2998 137.487 72.9619C137.264 72.6239 137.356 72.1688 137.694 71.9452C141.153 69.6555 145.621 68.6629 151.131 69.2414L151.334 69.2635L151.356 69.2036C151.522 68.7573 151.722 68.2665 151.958 67.741L152.038 67.5645C152.812 65.8742 153.787 64.1841 154.983 62.6033C157.213 59.6549 159.948 57.431 163.235 56.2408C167.03 54.8668 171.363 54.9528 176.239 56.7294L176.486 56.8207L176.533 56.7167C176.717 56.3164 176.931 55.8822 177.176 55.4209L177.269 55.2467C178.172 53.5787 179.289 51.9112 180.634 50.3525C183.261 47.308 186.43 45.055 190.179 43.9364Z" fill="#364356"/>
<path fill-rule="evenodd" clip-rule="evenodd" d="M164.272 73.5843C165.591 73.5843 166.911 73.6576 168.182 73.8044V30.3223C168.182 27.9256 166.227 25.9692 163.832 25.9692H49.8275C47.4326 25.9692 45.4775 27.9256 45.4775 30.3223V98.1621C45.4775 100.559 47.4326 102.515 49.8275 102.515H130.449C133.015 86.13 147.165 73.5843 164.272 73.5843Z" fill="#5667FD"/>
<path fill-rule="evenodd" clip-rule="evenodd" d="M164.629 27.6148C164.949 27.3665 165.41 27.4249 165.658 27.7451C165.896 28.0531 165.851 28.491 165.563 28.7449L165.527 28.7745L109.542 72.2058C107.958 73.445 105.821 73.4646 104.221 72.2666L104.144 72.2076L48.1566 28.7745C47.8365 28.5262 47.7782 28.0654 48.0263 27.7451C48.2648 27.4372 48.6998 27.3714 49.0174 27.5875L49.0549 27.6148L105.045 71.0498C106.102 71.877 107.503 71.8935 108.576 71.0977L108.641 71.048L164.629 27.6148Z" fill="#364356"/>
<path fill-rule="evenodd" clip-rule="evenodd" d="M81.4526 53.5426C81.743 53.2602 82.2071 53.2667 82.4894 53.5573C82.7603 53.8362 82.7651 54.2754 82.5082 54.56L82.4747 54.5947L47.3082 88.8081C47.0178 89.0906 46.5537 89.084 46.2714 88.7935C46.0005 88.5146 45.9957 88.0754 46.2526 87.7908L46.2861 87.7561L81.4526 53.5426Z" fill="#364356"/>
<path fill-rule="evenodd" clip-rule="evenodd" d="M131.488 53.5568C131.759 53.2781 132.198 53.2613 132.489 53.5106L132.524 53.5431L154.079 74.5505C154.369 74.8332 154.375 75.2977 154.093 75.5879C153.821 75.8666 153.383 75.8834 153.092 75.6342L153.056 75.6017L131.501 54.5943C131.211 54.3116 131.205 53.8471 131.488 53.5568Z" fill="#364356"/>
<path fill-rule="evenodd" clip-rule="evenodd" d="M164.271 72.8506C144.957 72.8506 129.3 88.5188 129.3 107.847C129.3 127.174 144.957 142.843 164.271 142.843C183.585 142.843 199.242 127.174 199.242 107.847C199.242 88.5188 183.585 72.8506 164.271 72.8506ZM164.271 74.3179C182.776 74.3179 197.776 89.3292 197.776 107.847C197.776 126.364 182.776 141.375 164.271 141.375C145.767 141.375 130.767 126.364 130.767 107.847C130.767 89.3292 145.767 74.3179 164.271 74.3179Z" fill="#364356"/>
<path fill-rule="evenodd" clip-rule="evenodd" d="M191.227 75.1739C189.81 74.2935 187.928 74.7337 187.048 76.1521L179.57 88.1843C175.122 84.5893 169.477 82.4372 163.343 82.4372C149.071 82.4372 137.463 94.0536 137.463 108.336C137.463 122.618 149.071 134.234 163.343 134.234C177.615 134.234 189.223 122.618 189.223 108.336C189.223 102.442 187.244 97.0127 183.92 92.6352L192.18 79.3313C193.084 77.9129 192.644 76.0543 191.227 75.1739ZM187.317 108.336C187.317 121.566 176.564 132.327 163.343 132.327C150.122 132.327 139.369 121.566 139.369 108.336C139.369 95.1052 150.122 84.3447 163.343 84.3447C169.11 84.3447 174.413 86.399 178.543 89.7983L165.005 111.588L157.16 101.146C156.158 99.8007 154.252 99.5317 152.908 100.534C151.564 101.537 151.295 103.445 152.297 104.79L162.805 118.778C163.392 119.536 164.272 120.001 165.225 120.001C165.274 120.001 165.322 120.001 165.347 120.001C166.349 119.952 167.253 119.414 167.791 118.583L182.82 94.4204C185.655 98.3333 187.317 103.151 187.317 108.336Z" fill="#364356"/>
</svg>
